<svg width="491" height="491" xmlns="http://www.w3.org/2000/svg" xmlns:xlink="http://www.w3.org/1999/xlink" overflow="hidden"><g><rect x="0" y="0" width="491" height="491" fill="#FFFFFF"/><path d="M30 247C30 128.259 126.483 32 245.5 32 364.517 32 461 128.259 461 247 461 365.741 364.517 462 245.5 462 126.483 462 30 365.741 30 247Z" stroke="#595959" stroke-width="11.9919" stroke-linejoin="round" stroke-miterlimit="10" fill="none" fill-rule="evenodd"/><path d="M132.884 56C153.914 77.0525 171.683 109.806 165.849 139 160.797 164.294 142.116 185.758 123.894 204 110.892 217.016 96.9701 232.391 78.9422 236 60.1408 239.764 38.5577 242.428 25 256" stroke="#595959" stroke-width="23.9837" stroke-linejoin="round" stroke-miterlimit="10" fill="none" fill-rule="evenodd"/><path d="M126 201C110.375 224.438 105.89 253.625 96 280 85.4593 308.105 64.4226 331.152 51 358" stroke="#595959" stroke-width="23.9837" stroke-linejoin="round" stroke-miterlimit="10" fill="none" fill-rule="evenodd"/><path d="M154.567 168C169.531 230.102 166.075 296.48 158.422 360 155.131 387.31 154.863 416.383 143 441" stroke="#595959" stroke-width="23.9837" stroke-linejoin="round" stroke-miterlimit="10" fill="none" fill-rule="evenodd"/><path d="M113 250C133.178 250 150.95 263.976 169 273" stroke="#595959" stroke-width="23.9837" stroke-linejoin="round" stroke-miterlimit="10" fill="none" fill-rule="evenodd"/><path d="M152 52C168.611 64.5249 177.818 84.6981 190.789 101 203.095 116.465 223.783 124.806 233.557 142 262.23 192.451 265.01 253.874 283.286 309 298.493 354.863 314.497 400.761 336 444" stroke="#595959" stroke-width="23.9837" stroke-linejoin="round" stroke-miterlimit="10" fill="none" fill-rule="evenodd"/><path d="M292.163 336C306.832 379.829 273.748 427.677 253 469" stroke="#595959" stroke-width="23.9837" stroke-linejoin="round" stroke-miterlimit="10" fill="none" fill-rule="evenodd"/><path d="M219 125C246.833 142.194 282.893 141.989 315.576 141.989 359.395 141.989 403.182 138.991 447 138.991" stroke="#595959" stroke-width="23.9837" stroke-linejoin="round" stroke-miterlimit="10" fill="none" fill-rule="evenodd"/><path d="M268 241C334.667 241 406.667 257 460 297" stroke="#595959" stroke-width="23.9837" stroke-linejoin="round" stroke-miterlimit="10" fill="none" fill-rule="evenodd"/><path d="M336 241C346.339 280.757 361.344 320.352 384 358.179 391.438 370.6 412 380.783 412 394" stroke="#595959" stroke-width="23.9837" stroke-linejoin="round" stroke-miterlimit="10" fill="none" fill-rule="evenodd"/><path d="M372 336C384.192 353.302 418.304 346.55 442 346.55" stroke="#595959" stroke-width="23.9837" stroke-linejoin="round" stroke-miterlimit="10" fill="none" fill-rule="evenodd"/><path d="M165 138C171.416 124.57 187.658 115 202 115" stroke="#595959" stroke-width="23.9837" stroke-linejoin="round" stroke-miterlimit="10" fill="none" fill-rule="evenodd"/><path d="M165 81C173.861 89.8609 177.396 102.793 183 114" stroke="#595959" stroke-width="23.9837" stroke-linejoin="round" stroke-miterlimit="10" fill="none" fill-rule="evenodd"/><path d="M349 142C393.623 158.756 444.289 179.954 466 218" stroke="#595959" stroke-width="23.9837" stroke-linejoin="round" stroke-miterlimit="10" fill="none" fill-rule="evenodd"/><path d="M382 256C401.955 231.766 425 204.292 425 174" stroke="#595959" stroke-width="23.9837" stroke-linejoin="round" stroke-miterlimit="10" fill="none" fill-rule="evenodd"/><path d="M13 247C13 118.87 117.094 15 245.5 15 373.906 15 478 118.87 478 247 478 375.13 373.906 479 245.5 479 117.094 479 13 375.13 13 247Z" stroke="#FFFFFF" stroke-width="23.9837" stroke-linejoin="round" stroke-miterlimit="10" fill="none" fill-rule="evenodd"/><path d="M170 147C196.638 147 228.163 149.386 247 167" stroke="#595959" stroke-width="23.9837" stroke-linejoin="round" stroke-miterlimit="10" fill="none" fill-rule="evenodd"/><path d="M170 127C196.638 127 228.163 129.386 247 147" stroke="#595959" stroke-width="23.9837" stroke-linejoin="round" stroke-miterlimit="10" fill="none" fill-rule="evenodd"/></g></svg>